<svg xmlns="http://www.w3.org/2000/svg" xmlns:xlink="http://www.w3.org/1999/xlink" width="500" zoomAndPan="magnify" viewBox="0 0 375 374.999991" height="500" preserveAspectRatio="xMidYMid meet" version="1.0"><defs><clipPath id="71638481ee"><path d="M 74 13.125 L 361.875 13.125 L 361.875 330 L 74 330 Z M 74 13.125 " clip-rule="nonzero"/></clipPath><clipPath id="30b7cbfaaf"><path d="M 13.125 45 L 301 45 L 301 361.875 L 13.125 361.875 Z M 13.125 45 " clip-rule="nonzero"/></clipPath></defs><path fill="#000000" d="M 203.917969 244.0625 C 203.078125 244.09375 202.242188 244.113281 201.410156 244.113281 C 199.53125 244.113281 197.699219 244.035156 195.914062 243.878906 C 189.710938 243.335938 184.113281 241.84375 179.113281 239.40625 C 176.25 238.007812 173.582031 236.300781 171.113281 234.277344 C 169.214844 232.722656 167.433594 230.984375 165.773438 229.066406 C 157.09375 219.035156 152.753906 205.277344 152.753906 187.792969 C 152.753906 169.511719 156.816406 155.355469 164.941406 145.320312 C 166.820312 143 168.878906 140.957031 171.113281 139.175781 C 173.566406 137.21875 176.230469 135.585938 179.113281 134.277344 C 184.078125 132.019531 189.675781 130.71875 195.914062 130.371094 C 197.050781 130.308594 198.203125 130.273438 199.378906 130.273438 C 200.808594 130.273438 202.320312 130.335938 203.917969 130.46875 C 213.679688 131.246094 226.601562 134.410156 242.683594 139.96875 L 242.683594 121.777344 C 228.082031 118.226562 215.167969 116.253906 203.917969 115.855469 L 203.917969 100.304688 L 195.914062 100.304688 L 195.914062 115.84375 C 189.917969 116.066406 184.316406 116.796875 179.113281 118.050781 L 179.113281 100.304688 L 171.113281 100.304688 L 171.113281 120.492188 C 162.816406 123.625 155.726562 128.316406 149.84375 134.566406 C 138.058594 147.089844 132.164062 164.773438 132.164062 187.609375 C 132.164062 210.503906 137.949219 228.171875 149.523438 240.605469 C 155.449219 246.972656 162.648438 251.707031 171.113281 254.816406 L 171.113281 274.726562 L 179.113281 274.726562 L 179.113281 257.183594 C 184.3125 258.375 189.914062 259.054688 195.914062 259.214844 L 195.914062 274.726562 L 203.917969 274.726562 L 203.917969 259.125 C 217.875 258.453125 230.863281 255.019531 242.867188 248.824219 L 242.867188 232.203125 C 229.050781 239.628906 216.066406 243.582031 203.917969 244.0625 " fill-opacity="1" fill-rule="nonzero"/><g clip-path="url(#71638481ee)"><path fill="#ffffff" d="M 316.734375 304.617188 C 316.652344 307.695312 315.441406 310.746094 313.09375 313.09375 C 310.746094 315.441406 307.695312 316.652344 304.617188 316.734375 C 301.316406 316.824219 297.988281 315.613281 295.46875 313.09375 C 293.0625 310.6875 291.847656 307.550781 291.820312 304.402344 C 291.789062 301.167969 293.003906 297.933594 295.46875 295.46875 C 297.933594 293.003906 301.167969 291.789062 304.402344 291.820312 C 307.550781 291.851562 310.6875 293.0625 313.09375 295.46875 C 315.613281 297.988281 316.824219 301.316406 316.734375 304.617188 Z M 100.882812 287.289062 C 100.652344 287.304688 100.417969 287.308594 100.183594 287.308594 C 93.300781 287.308594 87.71875 281.730469 87.71875 274.847656 C 87.71875 274.613281 87.730469 274.382812 87.742188 274.152344 C 88.105469 267.589844 93.535156 262.386719 100.183594 262.386719 C 100.460938 262.386719 100.734375 262.398438 101.003906 262.414062 C 107.234375 262.820312 112.214844 267.800781 112.617188 274.027344 C 112.636719 274.300781 112.648438 274.570312 112.648438 274.847656 C 112.648438 281.496094 107.441406 286.929688 100.882812 287.289062 Z M 348.191406 119.632812 C 339.410156 98.867188 326.835938 80.222656 310.824219 64.210938 C 294.8125 48.195312 276.164062 35.621094 255.398438 26.839844 C 233.890625 17.746094 211.054688 13.132812 187.515625 13.132812 C 163.980469 13.132812 141.140625 17.746094 119.636719 26.839844 C 108.253906 31.652344 97.511719 37.609375 87.488281 44.640625 C 89.34375 45.832031 91.085938 47.226562 92.683594 48.820312 C 95.460938 51.601562 97.59375 54.78125 99.09375 58.175781 C 124.277344 40.90625 154.738281 30.789062 187.515625 30.789062 C 273.9375 30.789062 344.242188 101.097656 344.242188 187.515625 C 344.242188 220.292969 334.128906 250.753906 316.855469 275.9375 C 315.832031 277.429688 314.785156 278.902344 313.714844 280.355469 C 307.191406 277.789062 299.832031 277.984375 293.4375 280.953125 L 286.980469 274.496094 C 296.273438 263.898438 303.753906 251.976562 309.261719 238.953125 C 316.15625 222.65625 319.648438 205.351562 319.648438 187.515625 C 319.648438 169.679688 316.15625 152.375 309.261719 136.082031 C 306.640625 129.871094 303.558594 123.917969 300.054688 118.234375 C 296.542969 123.121094 291.652344 126.945312 285.953125 129.140625 C 296.136719 146.242188 301.996094 166.207031 301.996094 187.515625 C 301.996094 215.910156 291.605469 241.914062 274.425781 261.945312 C 270.59375 266.417969 266.417969 270.59375 261.945312 274.425781 C 241.914062 291.605469 215.910156 301.996094 187.515625 301.996094 C 166.207031 301.996094 146.242188 296.136719 129.136719 285.953125 C 127.585938 285.03125 126.054688 284.070312 124.550781 283.074219 C 125.421875 280.488281 125.902344 277.722656 125.902344 274.847656 C 125.902344 260.644531 114.386719 249.132812 100.183594 249.132812 C 97.304688 249.132812 94.542969 249.609375 91.957031 250.484375 C 86.125 252.453125 81.226562 256.453125 78.113281 261.648438 C 75.800781 265.507812 74.46875 270.023438 74.46875 274.847656 C 74.46875 289.050781 85.980469 300.566406 100.183594 300.566406 C 105.011719 300.566406 109.523438 299.230469 113.382812 296.917969 C 114.976562 298.003906 116.59375 299.042969 118.234375 300.054688 C 123.917969 303.558594 129.871094 306.640625 136.082031 309.261719 C 152.375 316.15625 169.683594 319.648438 187.515625 319.648438 C 205.351562 319.648438 222.65625 316.15625 238.953125 309.261719 C 251.976562 303.753906 263.898438 296.273438 274.496094 286.980469 L 280.953125 293.4375 C 277.984375 299.832031 277.789062 307.191406 280.355469 313.714844 C 281.609375 316.898438 283.519531 319.886719 286.097656 322.464844 C 287.949219 324.320312 290.015625 325.828125 292.214844 326.996094 C 301.9375 332.164062 314.277344 330.652344 322.464844 322.464844 C 330.652344 314.277344 332.164062 301.9375 326.996094 292.214844 C 328.15625 290.675781 329.289062 289.117188 330.390625 287.542969 C 337.425781 277.519531 343.378906 266.777344 348.191406 255.398438 C 357.285156 233.890625 361.898438 211.054688 361.898438 187.515625 C 361.898438 163.980469 357.285156 141.140625 348.191406 119.632812 " fill-opacity="1" fill-rule="nonzero"/></g><g clip-path="url(#30b7cbfaaf)"><path fill="#ffffff" d="M 58.296875 70.414062 C 58.378906 67.335938 59.589844 64.285156 61.9375 61.9375 C 64.285156 59.589844 67.335938 58.378906 70.410156 58.296875 C 73.714844 58.207031 77.046875 59.417969 79.566406 61.9375 C 81.96875 64.34375 83.183594 67.484375 83.210938 70.632812 C 83.242188 73.863281 82.027344 77.101562 79.566406 79.566406 C 77.101562 82.03125 73.863281 83.246094 70.632812 83.214844 C 67.484375 83.179688 64.34375 81.964844 61.9375 79.566406 C 59.417969 77.042969 58.207031 73.714844 58.296875 70.414062 Z M 274.152344 87.742188 C 274.382812 87.730469 274.613281 87.722656 274.847656 87.722656 C 281.730469 87.722656 287.308594 93.300781 287.308594 100.1875 C 287.308594 100.417969 287.304688 100.652344 287.289062 100.882812 C 286.929688 107.441406 281.496094 112.648438 274.847656 112.648438 C 274.570312 112.648438 274.300781 112.636719 274.027344 112.617188 C 267.800781 112.210938 262.820312 107.234375 262.414062 101.003906 C 262.398438 100.734375 262.386719 100.460938 262.386719 100.1875 C 262.386719 93.53125 267.589844 88.101562 274.152344 87.742188 Z M 275.9375 316.855469 C 250.753906 334.128906 220.292969 344.242188 187.515625 344.242188 C 101.09375 344.242188 30.785156 273.9375 30.785156 187.515625 C 30.785156 154.738281 40.902344 124.277344 58.175781 99.089844 C 59.199219 97.601562 60.246094 96.128906 61.320312 94.675781 C 67.839844 97.246094 75.203125 97.050781 81.59375 94.078125 L 85.527344 98.015625 L 88.050781 100.535156 C 78.757812 111.136719 71.277344 123.054688 65.769531 136.082031 C 58.875 152.375 55.378906 169.679688 55.378906 187.515625 C 55.378906 205.351562 58.875 222.65625 65.769531 238.953125 C 68.394531 245.164062 71.472656 251.117188 74.980469 256.800781 C 78.488281 251.914062 83.378906 248.085938 89.078125 245.890625 C 78.894531 228.789062 73.035156 208.824219 73.035156 187.515625 C 73.035156 159.125 83.429688 133.121094 100.605469 113.089844 C 104.441406 108.613281 108.613281 104.441406 113.089844 100.605469 C 133.117188 83.429688 159.125 73.035156 187.515625 73.035156 C 208.824219 73.035156 228.789062 78.894531 245.890625 89.078125 C 247.445312 90 248.980469 90.964844 250.484375 91.960938 C 249.609375 94.542969 249.132812 97.304688 249.132812 100.1875 C 249.132812 114.386719 260.644531 125.902344 274.847656 125.902344 C 277.722656 125.902344 280.488281 125.421875 283.074219 124.550781 C 288.910156 122.578125 293.808594 118.578125 296.917969 113.382812 C 299.230469 109.523438 300.566406 105.007812 300.566406 100.1875 C 300.566406 85.980469 289.050781 74.464844 274.847656 74.464844 C 270.023438 74.464844 265.507812 75.800781 261.648438 78.113281 C 260.054688 77.03125 258.4375 75.988281 256.800781 74.980469 C 251.117188 71.476562 245.164062 68.394531 238.953125 65.769531 C 222.65625 58.878906 205.351562 55.382812 187.515625 55.382812 C 169.683594 55.382812 152.375 58.878906 136.082031 65.769531 C 123.054688 71.277344 111.136719 78.757812 100.535156 88.050781 L 94.078125 81.59375 C 97.046875 75.199219 97.246094 67.84375 94.675781 61.316406 C 93.421875 58.132812 91.511719 55.140625 88.9375 52.566406 C 87.082031 50.714844 85.015625 49.207031 82.816406 48.039062 C 73.09375 42.867188 60.757812 44.375 52.566406 52.566406 C 44.378906 60.753906 42.871094 73.097656 48.035156 82.816406 C 46.878906 84.351562 45.746094 85.910156 44.644531 87.484375 C 37.609375 97.507812 31.65625 108.253906 26.839844 119.632812 C 17.746094 141.140625 13.132812 163.980469 13.132812 187.515625 C 13.132812 211.054688 17.746094 233.890625 26.839844 255.398438 C 35.625 276.164062 48.195312 294.8125 64.207031 310.824219 C 80.222656 326.835938 98.867188 339.410156 119.636719 348.191406 C 141.140625 357.285156 163.980469 361.898438 187.515625 361.898438 C 211.054688 361.898438 233.890625 357.285156 255.398438 348.191406 C 266.777344 343.378906 277.519531 337.425781 287.542969 330.390625 C 285.691406 329.199219 283.945312 327.808594 282.347656 326.210938 C 279.570312 323.433594 277.441406 320.25 275.9375 316.855469 " fill-opacity="1" fill-rule="nonzero"/></g></svg>